<svg width="432" height="75" viewBox="0 0 432 75" fill="none" xmlns="http://www.w3.org/2000/svg">
<path d="M11.2787 35.7061V50.2109H18.5311C19.5251 50.2109 20.4601 50.0256 21.3361 49.655C22.2121 49.2675 22.9786 48.7453 23.6356 48.0883C24.2926 47.4313 24.8064 46.6648 25.1771 45.7887C25.5645 44.8959 25.7583 43.9525 25.7583 42.9585C25.7583 41.9646 25.5645 41.0296 25.1771 40.1536C24.8064 39.2607 24.2926 38.4858 23.6356 37.8288C22.9786 37.1718 22.2121 36.6579 21.3361 36.2873C20.4601 35.8999 19.5251 35.7061 18.5311 35.7061H11.2787ZM11.2787 64.6905H4.02631V28.4537H18.5311C19.862 28.4537 21.1423 28.6306 22.3721 28.9844C23.6019 29.3213 24.7475 29.8099 25.8088 30.45C26.887 31.0733 27.8641 31.8314 28.7401 32.7243C29.633 33.6003 30.3911 34.5774 31.0144 35.6556C31.6545 36.7338 32.1431 37.8877 32.48 39.1175C32.8338 40.3473 33.0107 41.6277 33.0107 42.9585C33.0107 44.9464 32.6316 46.8248 31.8735 48.5937C31.1155 50.3457 30.0794 51.8787 28.7654 53.1928C27.4513 54.5068 25.9099 55.5429 24.141 56.3009C22.389 57.059 20.519 57.4381 18.5311 57.4381H11.2787V64.6905Z" fill="white"/>
<path d="M62.7026 50.9185C62.7026 52.9401 62.3404 54.8269 61.616 56.5789C60.8916 58.3141 59.9061 59.8219 58.6595 61.1022C57.4128 62.3657 55.9472 63.368 54.2625 64.1093C52.5947 64.8337 50.8006 65.1959 48.8801 65.1959C46.9764 65.1959 45.1823 64.8337 43.4976 64.1093C41.8298 63.368 40.3642 62.3657 39.1007 61.1022C37.854 59.8219 36.8685 58.3141 36.1441 56.5789C35.4197 54.8269 35.0575 52.9401 35.0575 50.9185C35.0575 48.8632 35.4197 46.9596 36.1441 45.2075C36.8685 43.4555 37.854 41.9477 39.1007 40.6843C40.3642 39.4039 41.8298 38.4016 43.4976 37.6772C45.1823 36.9528 46.9764 36.5906 48.8801 36.5906C50.8006 36.5906 52.5947 36.9359 54.2625 37.6266C55.9472 38.3005 57.4128 39.2692 58.6595 40.5326C59.9061 41.7793 60.8916 43.287 61.616 45.0559C62.3404 46.808 62.7026 48.7621 62.7026 50.9185ZM55.7534 50.9185C55.7534 49.8066 55.5681 48.8043 55.1975 47.9114C54.8437 47.0017 54.3552 46.2268 53.7319 45.5866C53.1085 44.9296 52.3757 44.4326 51.5334 44.0957C50.7079 43.7419 49.8235 43.565 48.8801 43.565C47.9367 43.565 47.0438 43.7419 46.2015 44.0957C45.376 44.4326 44.6516 44.9296 44.0283 45.5866C43.4218 46.2268 42.9417 47.0017 42.5879 47.9114C42.2341 48.8043 42.0572 49.8066 42.0572 50.9185C42.0572 51.963 42.2341 52.9317 42.5879 53.8245C42.9417 54.7174 43.4218 55.4923 44.0283 56.1493C44.6516 56.8063 45.376 57.3286 46.2015 57.7161C47.0438 58.0867 47.9367 58.272 48.8801 58.272C49.8235 58.272 50.7079 58.0951 51.5334 57.7413C52.3757 57.3875 53.1085 56.8906 53.7319 56.2504C54.3552 55.6102 54.8437 54.8353 55.1975 53.9256C55.5681 53.0159 55.7534 52.0135 55.7534 50.9185Z" fill="white"/>
<path d="M90.1708 43.0091L85.1169 48.0883C84.8642 47.3807 84.5188 46.749 84.0808 46.1931C83.6428 45.6203 83.1458 45.1402 82.5899 44.7527C82.0508 44.3652 81.4612 44.0704 80.821 43.8682C80.1808 43.6661 79.5238 43.565 78.85 43.565C77.9066 43.565 77.0137 43.7587 76.1714 44.1462C75.3459 44.5337 74.6215 45.0812 73.9982 45.7887C73.3917 46.4794 72.9116 47.3049 72.5578 48.2652C72.204 49.2254 72.0271 50.2868 72.0271 51.4492C72.0271 52.3926 72.204 53.277 72.5578 54.1025C72.9116 54.928 73.3917 55.6524 73.9982 56.2757C74.6215 56.899 75.3459 57.3875 76.1714 57.7413C77.0137 58.0951 77.9066 58.272 78.85 58.272C79.5238 58.272 80.1724 58.1793 80.7957 57.994C81.4191 57.8087 82.0003 57.5476 82.5393 57.2107C83.0953 56.8569 83.5838 56.4357 84.005 55.9472C84.443 55.4418 84.7968 54.8858 85.0663 54.2794L90.1203 59.3586C89.4801 60.2683 88.7389 61.0854 87.8965 61.8097C87.0711 62.5341 86.1698 63.149 85.1927 63.6544C84.2324 64.1598 83.2132 64.5389 82.135 64.7916C81.0737 65.0611 79.9787 65.1959 78.85 65.1959C76.9463 65.1959 75.1522 64.8421 73.4675 64.1346C71.7997 63.4102 70.3341 62.4246 69.0706 61.178C67.8239 59.9314 66.8384 58.4741 66.114 56.8063C65.3896 55.1385 65.0274 53.3528 65.0274 51.4492C65.0274 49.377 65.3896 47.4397 66.114 45.6371C66.8384 43.8346 67.8239 42.2678 69.0706 40.937C70.3341 39.5892 71.7997 38.5279 73.4675 37.753C75.1522 36.978 76.9463 36.5906 78.85 36.5906C79.9787 36.5906 81.0821 36.7338 82.1603 37.0201C83.2553 37.3065 84.2914 37.7277 85.2685 38.2836C86.2624 38.8227 87.1721 39.4882 87.9976 40.2799C88.8399 41.0717 89.5643 41.9814 90.1708 43.0091Z" fill="white"/>
<path d="M100.506 64.6905H93.5569V26.8617H100.506V50.7163L110.791 37.6772H118.726L109.755 48.9475L118.726 64.6905H110.791L105.307 54.8606L100.506 61.2285V64.6905Z" fill="white"/>
<path d="M131.36 58.0698C131.63 58.1541 131.9 58.213 132.169 58.2467C132.439 58.2636 132.708 58.272 132.978 58.272C133.652 58.272 134.3 58.1793 134.923 57.994C135.547 57.8087 136.128 57.5476 136.667 57.2107C137.223 56.8569 137.712 56.4357 138.133 55.9472C138.571 55.4418 138.925 54.8858 139.194 54.2794L144.248 59.3586C143.608 60.2683 142.867 61.0854 142.024 61.8097C141.199 62.5341 140.298 63.149 139.32 63.6544C138.36 64.1598 137.341 64.5389 136.263 64.7916C135.201 65.0611 134.106 65.1959 132.978 65.1959C131.074 65.1959 129.28 64.8421 127.595 64.1346C125.927 63.427 124.462 62.4415 123.198 61.178C121.952 59.9145 120.966 58.4152 120.242 56.68C119.517 54.928 119.155 53.0075 119.155 50.9185C119.155 48.779 119.517 46.8248 120.242 45.0559C120.966 43.287 121.952 41.7793 123.198 40.5326C124.462 39.286 125.927 38.3173 127.595 37.6266C129.28 36.9359 131.074 36.5906 132.978 36.5906C134.106 36.5906 135.21 36.7253 136.288 36.9949C137.366 37.2644 138.385 37.6519 139.346 38.1573C140.323 38.6627 141.232 39.286 142.075 40.0272C142.917 40.7516 143.658 41.5687 144.299 42.4784L131.36 58.0698ZM134.898 43.843C134.578 43.725 134.258 43.6492 133.938 43.6155C133.635 43.5819 133.315 43.565 132.978 43.565C132.034 43.565 131.141 43.7419 130.299 44.0957C129.474 44.4326 128.749 44.9211 128.126 45.5613C127.519 46.2015 127.039 46.9764 126.686 47.8861C126.332 48.779 126.155 49.7898 126.155 50.9185C126.155 51.1712 126.163 51.4576 126.18 51.7777C126.214 52.0978 126.256 52.4263 126.307 52.7632C126.374 53.0833 126.45 53.3949 126.534 53.6982C126.618 54.0014 126.728 54.2709 126.862 54.5068L134.898 43.843Z" fill="white"/>
<path d="M161.356 64.6905C159.688 64.6905 158.121 64.3788 156.655 63.7555C155.19 63.1154 153.901 62.2478 152.789 61.1527C151.694 60.0409 150.827 58.7521 150.186 57.2865C149.563 55.8208 149.251 54.2541 149.251 52.5863V44.5505H145.891V37.6772H149.251V26.8617H156.125V37.6772H166.586V44.5505H156.125V52.5863C156.125 53.3107 156.26 53.993 156.529 54.6331C156.799 55.2565 157.169 55.804 157.641 56.2757C158.113 56.7474 158.669 57.1264 159.309 57.4128C159.949 57.6824 160.631 57.8171 161.356 57.8171H166.586V64.6905H161.356Z" fill="white"/>
<path d="M183.593 39.3197C183.593 37.8204 183.879 36.4137 184.452 35.0996C185.025 33.7856 185.8 32.6401 186.777 31.663C187.771 30.669 188.925 29.8857 190.239 29.3129C191.553 28.7401 192.96 28.4537 194.459 28.4537H211.086V35.7061H194.459C193.954 35.7061 193.482 35.7988 193.044 35.9841C192.606 36.1694 192.218 36.4305 191.881 36.7675C191.561 37.0875 191.309 37.4666 191.123 37.9046C190.938 38.3426 190.845 38.8143 190.845 39.3197C190.845 39.8251 190.938 40.3052 191.123 40.7601C191.309 41.1981 191.561 41.5855 191.881 41.9225C192.218 42.2426 192.606 42.4953 193.044 42.6806C193.482 42.8659 193.954 42.9585 194.459 42.9585H201.711C203.211 42.9585 204.617 43.2449 205.931 43.8177C207.262 44.3736 208.416 45.1486 209.393 46.1425C210.387 47.1196 211.162 48.2736 211.718 49.6045C212.291 50.9185 212.577 52.3252 212.577 53.8245C212.577 55.3239 212.291 56.7305 211.718 58.0446C211.162 59.3586 210.387 60.5126 209.393 61.5065C208.416 62.4836 207.262 63.2585 205.931 63.8313C204.617 64.4041 203.211 64.6905 201.711 64.6905H185.615V57.4381H201.711C202.217 57.4381 202.688 57.3454 203.126 57.1601C203.564 56.9748 203.944 56.7221 204.264 56.402C204.601 56.0651 204.862 55.6776 205.047 55.2396C205.232 54.8016 205.325 54.3299 205.325 53.8245C205.325 53.3191 205.232 52.8474 205.047 52.4094C204.862 51.9714 204.601 51.5924 204.264 51.2723C203.944 50.9353 203.564 50.6742 203.126 50.4889C202.688 50.3036 202.217 50.2109 201.711 50.2109H194.459C192.96 50.2109 191.553 49.9246 190.239 49.3518C188.925 48.779 187.771 48.0041 186.777 47.027C185.8 46.033 185.025 44.879 184.452 43.565C183.879 42.2341 183.593 40.819 183.593 39.3197Z" fill="white"/>
<path d="M223.317 75.0005H216.368V37.6266H218.036L220.79 40.8864C221.413 40.2968 222.096 39.7409 222.837 39.2186C223.578 38.6964 224.345 38.2499 225.136 37.8793C225.945 37.4919 226.779 37.1886 227.638 36.9696C228.497 36.7506 229.365 36.6411 230.241 36.6411C232.145 36.6411 233.93 36.9865 235.598 37.6772C237.283 38.351 238.748 39.3113 239.995 40.5579C241.258 41.8046 242.252 43.3123 242.977 45.0812C243.701 46.8332 244.063 48.779 244.063 50.9185C244.063 53.1422 243.701 55.147 242.977 56.9327C242.252 58.7016 241.258 60.2093 239.995 61.456C238.748 62.6858 237.283 63.6292 235.598 64.2862C233.93 64.9432 232.145 65.2717 230.241 65.2717C229.634 65.2717 229.028 65.2043 228.421 65.0695C227.832 64.9348 227.242 64.7579 226.653 64.5389C226.08 64.303 225.507 64.0419 224.934 63.7555C224.378 63.4691 223.839 63.1743 223.317 62.8711V75.0005ZM237.14 50.9185C237.14 49.7729 236.954 48.7453 236.584 47.8356C236.23 46.9259 235.741 46.1594 235.118 45.536C234.495 44.8959 233.762 44.4073 232.919 44.0704C232.077 43.7335 231.184 43.565 230.241 43.565C229.297 43.565 228.405 43.7335 227.562 44.0704C226.737 44.4073 226.012 44.8959 225.389 45.536C224.766 46.1594 224.269 46.9259 223.898 47.8356C223.544 48.7453 223.368 49.7729 223.368 50.9185C223.368 52.0135 223.544 53.0159 223.898 53.9256C224.269 54.8353 224.766 55.6102 225.389 56.2504C226.012 56.8906 226.737 57.3875 227.562 57.7413C228.405 58.0951 229.297 58.272 230.241 58.272C231.184 58.272 232.077 58.0951 232.919 57.7413C233.762 57.3875 234.495 56.8906 235.118 56.2504C235.741 55.6102 236.23 54.8353 236.584 53.9256C236.954 53.0159 237.14 52.0135 237.14 50.9185Z" fill="white"/>
<path d="M274.109 64.6905H272.441L269.763 60.9758C269.106 61.5655 268.407 62.1214 267.665 62.6437C266.941 63.149 266.174 63.5955 265.366 63.9829C264.557 64.3536 263.723 64.6484 262.864 64.8674C262.022 65.0864 261.163 65.1959 260.287 65.1959C258.383 65.1959 256.589 64.8758 254.904 64.2356C253.236 63.5955 251.771 62.6689 250.507 61.456C249.261 60.2262 248.275 58.7268 247.551 56.958C246.826 55.1891 246.464 53.1759 246.464 50.9185C246.464 48.8127 246.826 46.8838 247.551 45.1317C248.275 43.3628 249.261 41.8467 250.507 40.5832C251.771 39.3197 253.236 38.3426 254.904 37.6519C256.589 36.9443 258.383 36.5906 260.287 36.5906C261.163 36.5906 262.03 36.7001 262.889 36.9191C263.749 37.1381 264.582 37.4413 265.391 37.8288C266.2 38.2162 266.966 38.6711 267.691 39.1933C268.432 39.7156 269.123 40.2799 269.763 40.8864L272.441 37.6772H274.109V64.6905ZM267.16 50.9185C267.16 49.9751 266.975 49.0654 266.604 48.1894C266.25 47.2965 265.762 46.5131 265.138 45.8393C264.515 45.1486 263.782 44.6011 262.94 44.1968C262.114 43.7756 261.23 43.565 260.287 43.565C259.343 43.565 258.45 43.725 257.608 44.0451C256.783 44.3652 256.058 44.8369 255.435 45.4602C254.828 46.0836 254.348 46.8585 253.994 47.7851C253.641 48.6948 253.464 49.7392 253.464 50.9185C253.464 52.0978 253.641 53.1507 253.994 54.0772C254.348 54.9869 254.828 55.7534 255.435 56.3768C256.058 57.0001 256.783 57.4718 257.608 57.7919C258.45 58.1119 259.343 58.272 260.287 58.272C261.23 58.272 262.114 58.0698 262.94 57.6655C263.782 57.2444 264.515 56.6968 265.138 56.023C265.762 55.3323 266.25 54.5489 266.604 53.6729C266.975 52.78 267.16 51.8619 267.16 50.9185Z" fill="white"/>
<path d="M303.043 43.0091L297.989 48.0883C297.736 47.3807 297.391 46.749 296.953 46.1931C296.515 45.6203 296.018 45.1402 295.462 44.7527C294.923 44.3652 294.333 44.0704 293.693 43.8682C293.053 43.6661 292.396 43.565 291.722 43.565C290.779 43.565 289.886 43.7587 289.044 44.1462C288.218 44.5337 287.494 45.0812 286.87 45.7887C286.264 46.4794 285.784 47.3049 285.43 48.2652C285.076 49.2254 284.899 50.2868 284.899 51.4492C284.899 52.3926 285.076 53.277 285.43 54.1025C285.784 54.928 286.264 55.6524 286.87 56.2757C287.494 56.899 288.218 57.3875 289.044 57.7413C289.886 58.0951 290.779 58.272 291.722 58.272C292.396 58.272 293.045 58.1793 293.668 57.994C294.291 57.8087 294.872 57.5476 295.412 57.2107C295.967 56.8569 296.456 56.4357 296.877 55.9472C297.315 55.4418 297.669 54.8858 297.938 54.2794L302.992 59.3586C302.352 60.2683 301.611 61.0854 300.769 61.8097C299.943 62.5341 299.042 63.149 298.065 63.6544C297.105 64.1598 296.085 64.5389 295.007 64.7916C293.946 65.0611 292.851 65.1959 291.722 65.1959C289.818 65.1959 288.024 64.8421 286.34 64.1346C284.672 63.4102 283.206 62.4246 281.943 61.178C280.696 59.9314 279.711 58.4741 278.986 56.8063C278.262 55.1385 277.9 53.3528 277.9 51.4492C277.9 49.377 278.262 47.4397 278.986 45.6371C279.711 43.8346 280.696 42.2678 281.943 40.937C283.206 39.5892 284.672 38.5279 286.34 37.753C288.024 36.978 289.818 36.5906 291.722 36.5906C292.851 36.5906 293.954 36.7338 295.032 37.0201C296.127 37.3065 297.164 37.7277 298.141 38.2836C299.135 38.8227 300.044 39.4882 300.87 40.2799C301.712 41.0717 302.437 41.9814 303.043 43.0091Z" fill="white"/>
<path d="M316.79 58.0698C317.059 58.1541 317.329 58.213 317.598 58.2467C317.868 58.2636 318.137 58.272 318.407 58.272C319.081 58.272 319.729 58.1793 320.353 57.994C320.976 57.8087 321.557 57.5476 322.096 57.2107C322.652 56.8569 323.141 56.4357 323.562 55.9472C324 55.4418 324.354 54.8858 324.623 54.2794L329.677 59.3586C329.037 60.2683 328.296 61.0854 327.454 61.8097C326.628 62.5341 325.727 63.149 324.75 63.6544C323.789 64.1598 322.77 64.5389 321.692 64.7916C320.631 65.0611 319.536 65.1959 318.407 65.1959C316.503 65.1959 314.709 64.8421 313.025 64.1346C311.357 63.427 309.891 62.4415 308.628 61.178C307.381 59.9145 306.395 58.4152 305.671 56.68C304.947 54.928 304.584 53.0075 304.584 50.9185C304.584 48.779 304.947 46.8248 305.671 45.0559C306.395 43.287 307.381 41.7793 308.628 40.5326C309.891 39.286 311.357 38.3173 313.025 37.6266C314.709 36.9359 316.503 36.5906 318.407 36.5906C319.536 36.5906 320.639 36.7253 321.717 36.9949C322.795 37.2644 323.815 37.6519 324.775 38.1573C325.752 38.6627 326.662 39.286 327.504 40.0272C328.346 40.7516 329.088 41.5687 329.728 42.4784L316.79 58.0698ZM320.327 43.843C320.007 43.725 319.687 43.6492 319.367 43.6155C319.064 43.5819 318.744 43.565 318.407 43.565C317.464 43.565 316.571 43.7419 315.728 44.0957C314.903 44.4326 314.179 44.9211 313.555 45.5613C312.949 46.2015 312.469 46.9764 312.115 47.8861C311.761 48.779 311.584 49.7898 311.584 50.9185C311.584 51.1712 311.593 51.4576 311.609 51.7777C311.643 52.0978 311.685 52.4263 311.736 52.7632C311.803 53.0833 311.879 53.3949 311.963 53.6982C312.047 54.0014 312.157 54.2709 312.292 54.5068L320.327 43.843Z" fill="white"/>
<path d="M348.074 64.6905H332.305V57.8171H348.074C348.545 57.8171 348.95 57.6487 349.287 57.3117C349.624 56.9748 349.792 56.5705 349.792 56.0988C349.792 55.6102 349.624 55.2902 349.287 55.1385C348.95 54.9869 348.545 54.9111 348.074 54.9111H340.897C339.701 54.9111 338.581 54.6837 337.536 54.2288C336.492 53.774 335.582 53.1591 334.807 52.3841C334.032 51.5924 333.417 50.6742 332.962 49.6297C332.524 48.5853 332.305 47.465 332.305 46.2689C332.305 45.0728 332.524 43.9525 332.962 42.908C333.417 41.8635 334.032 40.9538 334.807 40.1789C335.582 39.4039 336.492 38.7975 337.536 38.3594C338.581 37.9046 339.701 37.6772 340.897 37.6772H354.871V44.5505H340.897C340.425 44.5505 340.021 44.719 339.684 45.0559C339.347 45.3929 339.179 45.7972 339.179 46.2689C339.179 46.7574 339.347 47.1786 339.684 47.5324C340.021 47.8693 340.425 48.0377 340.897 48.0377H348.074C349.253 48.0377 350.365 48.2399 351.409 48.6442C352.454 49.0317 353.363 49.5792 354.138 50.2868C354.913 50.9943 355.528 51.8451 355.983 52.839C356.438 53.8329 356.665 54.9195 356.665 56.0988C356.665 57.2949 356.438 58.4152 355.983 59.4597C355.528 60.4873 354.913 61.397 354.138 62.1888C353.363 62.9637 352.454 63.5786 351.409 64.0335C350.365 64.4715 349.253 64.6905 348.074 64.6905Z" fill="white"/>
<path d="M367.253 64.6905H360.355V26.8617H367.253V38.8143C368.079 38.191 368.93 37.753 369.806 37.5003C370.682 37.2307 371.574 37.096 372.484 37.096C374.152 37.096 375.719 37.416 377.184 38.0562C378.65 38.6795 379.922 39.5471 381 40.659C382.095 41.754 382.954 43.0428 383.578 44.5253C384.218 45.9909 384.538 47.5576 384.538 49.2254V64.6905H377.589V49.2254H377.639C377.639 48.5179 377.504 47.8524 377.235 47.2291C376.965 46.589 376.595 46.033 376.123 45.5613C375.651 45.0896 375.104 44.719 374.48 44.4494C373.857 44.1799 373.192 44.0451 372.484 44.0451C371.76 44.0451 371.078 44.1799 370.437 44.4494C369.797 44.719 369.241 45.0896 368.77 45.5613C368.298 46.033 367.927 46.589 367.658 47.2291C367.388 47.8524 367.253 48.5179 367.253 49.2254V64.6905Z" fill="white"/>
<path d="M397.602 30.2731C397.602 30.9133 397.476 31.5113 397.223 32.0673C396.987 32.6232 396.659 33.1118 396.238 33.5329C395.817 33.9372 395.32 34.2657 394.747 34.5184C394.191 34.7543 393.593 34.8722 392.953 34.8722C392.312 34.8722 391.706 34.7543 391.133 34.5184C390.577 34.2657 390.089 33.9372 389.668 33.5329C389.263 33.1118 388.935 32.6232 388.682 32.0673C388.446 31.5113 388.328 30.9133 388.328 30.2731C388.328 29.6498 388.446 29.0602 388.682 28.5043C388.935 27.9315 389.263 27.4429 389.668 27.0386C390.089 26.6174 390.577 26.2889 391.133 26.0531C391.706 25.8004 392.312 25.674 392.953 25.674C393.593 25.674 394.191 25.8004 394.747 26.0531C395.32 26.2889 395.817 26.6174 396.238 27.0386C396.659 27.4429 396.987 27.9315 397.223 28.5043C397.476 29.0602 397.602 29.6498 397.602 30.2731ZM396.415 64.6905H389.465V37.6266H396.415V64.6905Z" fill="white"/>
<path d="M408.645 75.0005H401.696V37.6266H403.364L406.118 40.8864C406.742 40.2968 407.424 39.7409 408.165 39.2186C408.906 38.6964 409.673 38.2499 410.465 37.8793C411.273 37.4919 412.107 37.1886 412.966 36.9696C413.825 36.7506 414.693 36.6411 415.569 36.6411C417.473 36.6411 419.258 36.9865 420.926 37.6772C422.611 38.351 424.077 39.3113 425.323 40.5579C426.587 41.8046 427.581 43.3123 428.305 45.0812C429.029 46.8332 429.392 48.779 429.392 50.9185C429.392 53.1422 429.029 55.147 428.305 56.9327C427.581 58.7016 426.587 60.2093 425.323 61.456C424.077 62.6858 422.611 63.6292 420.926 64.2862C419.258 64.9432 417.473 65.2717 415.569 65.2717C414.963 65.2717 414.356 65.2043 413.75 65.0695C413.16 64.9348 412.57 64.7579 411.981 64.5389C411.408 64.303 410.835 64.0419 410.262 63.7555C409.706 63.4691 409.167 63.1743 408.645 62.8711V75.0005ZM422.468 50.9185C422.468 49.7729 422.282 48.7453 421.912 47.8356C421.558 46.9259 421.069 46.1594 420.446 45.536C419.823 44.8959 419.09 44.4073 418.248 44.0704C417.405 43.7335 416.512 43.565 415.569 43.565C414.626 43.565 413.733 43.7335 412.89 44.0704C412.065 44.4073 411.341 44.8959 410.717 45.536C410.094 46.1594 409.597 46.9259 409.226 47.8356C408.873 48.7453 408.696 49.7729 408.696 50.9185C408.696 52.0135 408.873 53.0159 409.226 53.9256C409.597 54.8353 410.094 55.6102 410.717 56.2504C411.341 56.8906 412.065 57.3875 412.89 57.7413C413.733 58.0951 414.626 58.272 415.569 58.272C416.512 58.272 417.405 58.0951 418.248 57.7413C419.09 57.3875 419.823 56.8906 420.446 56.2504C421.069 55.6102 421.558 54.8353 421.912 53.9256C422.282 53.0159 422.468 52.0135 422.468 50.9185Z" fill="white"/>
<path d="M17.2508 8.6254C17.2508 13.3891 13.3891 17.2508 8.6254 17.2508C3.86172 17.2508 0 13.3891 0 8.6254C0 3.86172 3.86172 0 8.6254 0C13.3891 0 17.2508 3.86172 17.2508 8.6254Z" fill="#1A1A66"/>
<path d="M38.8143 8.6254C38.8143 13.3891 34.9526 17.2508 30.1889 17.2508C25.4252 17.2508 21.5635 13.3891 21.5635 8.6254C21.5635 3.86172 25.4252 0 30.1889 0C34.9526 0 38.8143 3.86172 38.8143 8.6254Z" fill="#2D2D99"/>
<path d="M60.3778 8.6254C60.3778 13.3891 56.5161 17.2508 51.7524 17.2508C46.9887 17.2508 43.127 13.3891 43.127 8.6254C43.127 3.86172 46.9887 0 51.7524 0C56.5161 0 60.3778 3.86172 60.3778 8.6254Z" fill="#4D4DCB"/>
<path d="M81.9413 8.6254C81.9413 13.3891 78.0796 17.2508 73.3159 17.2508C68.5522 17.2508 64.6905 13.3891 64.6905 8.6254C64.6905 3.86172 68.5522 0 73.3159 0C78.0796 0 81.9413 3.86172 81.9413 8.6254Z" fill="#A83535"/>
<path d="M103.505 8.6254C103.505 13.3891 99.6431 17.2508 94.8794 17.2508C90.1157 17.2508 86.254 13.3891 86.254 8.6254C86.254 3.86172 90.1157 0 94.8794 0C99.6431 0 103.505 3.86172 103.505 8.6254Z" fill="#D94C4C"/>
<path d="M125.068 8.6254C125.068 13.3891 121.207 17.2508 116.443 17.2508C111.679 17.2508 107.817 13.3891 107.817 8.6254C107.817 3.86172 111.679 0 116.443 0C121.207 0 125.068 3.86172 125.068 8.6254Z" fill="#F16868"/>
<path d="M129.381 8.6254C129.381 3.86172 133.243 0 138.006 0H422.645C427.408 0 431.27 3.86172 431.27 8.6254C431.27 13.3891 427.408 17.2508 422.645 17.2508H138.006C133.243 17.2508 129.381 13.3891 129.381 8.6254Z" fill="#D9D9D9"/>
</svg>
